<svg width="181" height="180" viewBox="0 0 181 180" fill="none" xmlns="http://www.w3.org/2000/svg">
<g clip-path="url(#clip0_14_12)" filter="url(#filter0_d_14_12)">
<path d="M91.7072 101.887C89.0055 101.887 86.3412 101.442 83.8073 100.618V117.5H99.6071V100.618C97.0732 101.442 94.4089 101.887 91.7072 101.887Z" fill="black"/>
<path d="M124.257 56.2574C124.974 54.3563 125.388 52.3084 125.388 50.16C125.388 41.9141 119.596 35.0109 111.793 33.125C109.64 24.1711 101.477 17.5 91.7072 17.5C81.9379 17.5 73.7741 24.1711 71.6219 33.125C63.8213 35.0109 58.0269 41.9141 58.0269 50.16C58.0269 52.3084 58.4369 54.3531 59.1541 56.2574C54.0397 59.95 50.7076 65.8889 50.7076 72.6088C50.7076 83.8209 59.9523 92.9092 71.3643 92.9092C74.2554 92.9092 77.0068 92.3232 79.5034 91.2674C82.0341 93.3793 85.1365 94.8379 88.5461 95.4057V85.6461L74.2306 71.5713C72.9946 70.3598 72.9946 68.3943 74.2306 67.1828C75.4634 65.9682 77.4633 65.9682 78.6961 67.1828L88.5463 76.86V66.2002L78.7273 56.5506C77.8113 55.6473 77.8113 54.1885 78.7273 53.2883C79.6433 52.3881 81.1309 52.3881 82.0439 53.2883L88.5465 59.6756V47.9721C88.5465 46.257 89.9625 44.8684 91.7076 44.8684C93.4528 44.8684 94.8688 46.2568 94.8688 47.9721V59.6756L101.371 53.2883C102.284 52.3881 103.772 52.3881 104.688 53.2883C105.604 54.1885 105.604 55.6473 104.688 56.5506L94.869 66.2002V76.86L104.719 67.1828C105.952 65.9682 107.952 65.9682 109.185 67.1828C110.421 68.3943 110.421 70.3598 109.185 71.5713L94.8692 85.6461V95.4057C98.2788 94.8381 101.381 93.3793 103.912 91.2705C106.409 92.3234 109.157 92.9094 112.048 92.9094C123.46 92.9094 132.708 83.8213 132.708 72.609C132.707 65.8887 129.375 59.95 124.257 56.2574Z" fill="black"/>
</g>
<g filter="url(#filter1_d_14_12)">
<path d="M10.3242 149.398L4.5 140.188H7.03125L11.5781 147.477L16.0312 140.188H18.5625L12.7617 149.375V156.5H10.3242V149.398ZM19.5938 150.43C19.5938 148.531 20.1992 146.992 21.4102 145.812C22.543 144.711 23.9453 144.16 25.6172 144.16C27.2578 144.16 28.6289 144.711 29.7305 145.812C30.9023 146.984 31.4883 148.523 31.4883 150.43C31.4883 152.328 30.8984 153.859 29.7188 155.023C28.6016 156.133 27.2305 156.688 25.6055 156.688C23.957 156.688 22.5586 156.133 21.4102 155.023C20.1992 153.859 19.5938 152.328 19.5938 150.43ZM22.0312 150.43C22.0312 152.43 22.6719 153.789 23.9531 154.508C24.4062 154.758 24.9492 154.883 25.582 154.883C26.2148 154.883 26.75 154.758 27.1875 154.508C27.625 154.25 27.9844 153.914 28.2656 153.5C28.7891 152.703 29.0508 151.68 29.0508 150.43C29.0508 148.445 28.4219 147.086 27.1641 146.352C26.7266 146.094 26.2031 145.965 25.5938 145.965C24.9844 145.965 24.4531 146.094 24 146.352C23.5547 146.602 23.1875 146.934 22.8984 147.348C22.3203 148.16 22.0312 149.188 22.0312 150.43ZM42.2578 153.535V144.406H44.6016V156.5H42.4922L42.2812 155.223C41.125 156.199 39.8477 156.688 38.4492 156.688C36.9648 156.688 35.9141 156.277 35.2969 155.457C34.6562 154.621 34.3359 153.18 34.3359 151.133V144.406H36.6797V151.016C36.6797 152.461 36.8867 153.445 37.3008 153.969C37.668 154.438 38.3672 154.672 39.3984 154.672C40.4375 154.672 41.3906 154.293 42.2578 153.535ZM53.8359 146.234C52.6719 146.234 51.6367 146.629 50.7305 147.418V156.5H48.3867V144.406H50.5547L50.7188 145.719C51.9922 144.719 53.3086 144.219 54.668 144.219C56.1055 144.219 57.1602 144.648 57.832 145.508C58.5352 146.414 58.8867 147.875 58.8867 149.891V156.5H56.543V149.891C56.543 147.953 56.0195 146.797 54.9727 146.422C54.6367 146.297 54.2578 146.234 53.8359 146.234ZM69.2812 161.117C68.6016 161.289 67.7266 161.375 66.6562 161.375C65.5938 161.375 64.8164 161.297 64.3242 161.141V159.055C64.9414 159.32 65.6953 159.453 66.5859 159.453C67.4844 159.461 68.1445 159.402 68.5664 159.277C68.9883 159.152 69.3203 158.949 69.5625 158.668C70 158.16 70.2188 157.242 70.2188 155.914V155.293C69.625 155.887 68.8438 156.301 67.875 156.535C67.4844 156.629 67.0938 156.676 66.7031 156.676C66.3125 156.676 65.9297 156.633 65.5547 156.547C65.1875 156.461 64.8203 156.324 64.4531 156.137C64.0859 155.941 63.7344 155.691 63.3984 155.387C63.0625 155.074 62.7656 154.688 62.5078 154.227C61.9297 153.227 61.6406 151.996 61.6406 150.535C61.625 149.184 62.0156 147.996 62.8125 146.973C63.5 146.082 64.4453 145.391 65.6484 144.898C66.7422 144.445 67.9258 144.219 69.1992 144.219C70.4727 144.219 71.5938 144.281 72.5625 144.406V155.914C72.5625 158.836 71.4688 160.57 69.2812 161.117ZM70.2188 146.117C69.7188 146.055 69.2266 146.023 68.7422 146.023C68.2578 146.023 67.7148 146.113 67.1133 146.293C66.5117 146.473 65.9844 146.746 65.5312 147.113C64.5391 147.918 64.043 149.059 64.043 150.535C64.043 152.137 64.4297 153.305 65.2031 154.039C65.7812 154.594 66.4883 154.871 67.3242 154.871C68.332 154.871 69.1797 154.516 69.8672 153.805C70.0312 153.625 70.1484 153.465 70.2188 153.324V146.117ZM88.6172 156.336C87.7188 156.57 86.5312 156.688 85.0547 156.688C83.5859 156.688 82.3242 156.504 81.2695 156.137C80.2227 155.77 79.3203 155.227 78.5625 154.508C76.9375 152.992 76.125 150.883 76.125 148.18C76.125 146.414 76.5469 144.891 77.3906 143.609C78.5312 141.867 80.2852 140.758 82.6523 140.281C83.3789 140.141 84.2695 140.07 85.3242 140.07C86.3789 140.07 87.2891 140.121 88.0547 140.223V142.473C87.3828 142.301 86.4219 142.215 85.1719 142.215C83.9297 142.215 82.9102 142.355 82.1133 142.637C81.3164 142.918 80.6562 143.32 80.1328 143.844C79.0859 144.867 78.5625 146.312 78.5625 148.18C78.5625 150.078 79.0781 151.598 80.1094 152.738C81.2344 153.98 82.8398 154.602 84.9258 154.602C85.4102 154.602 85.8594 154.582 86.2734 154.543V148.531H88.6172V156.336ZM92.9414 154.344C92.6836 153.898 92.4766 153.375 92.3203 152.773C92.1719 152.172 92.0977 151.387 92.0977 150.418C92.0977 149.449 92.3047 148.559 92.7188 147.746C93.1406 146.926 93.6875 146.254 94.3594 145.73C95.6641 144.723 97.2852 144.219 99.2227 144.219C100.23 144.219 100.992 144.242 101.508 144.289C101.508 144.289 101.887 144.328 102.645 144.406V156.5H100.535L100.441 155.105C99.9727 155.73 99.2578 156.195 98.2969 156.5C97.9297 156.617 97.5508 156.676 97.1602 156.676C96.7773 156.676 96.3984 156.637 96.0234 156.559C95.6484 156.48 95.2734 156.352 94.8984 156.172C94.5312 155.992 94.1797 155.754 93.8438 155.457C93.5078 155.152 93.207 154.781 92.9414 154.344ZM100.301 146.129C99.8008 146.066 99.3008 146.035 98.8008 146.035C98.3086 146.035 97.7812 146.125 97.2188 146.305C96.6562 146.477 96.1758 146.75 95.7773 147.125C94.9492 147.906 94.5352 149.098 94.5352 150.699C94.5352 152.215 94.8906 153.336 95.6016 154.062C96.1406 154.602 96.7891 154.871 97.5469 154.871C98.5234 154.871 99.3281 154.516 99.9609 153.805C100.117 153.625 100.23 153.465 100.301 153.324V146.129ZM114.082 146.551C113.652 146.426 113.137 146.363 112.535 146.363C111.941 146.363 111.453 146.426 111.07 146.551C110.688 146.668 110.352 146.812 110.062 146.984C109.531 147.297 109.145 147.648 108.902 148.039V156.5H106.559V144.406H108.809L108.902 146.082C109.488 145.348 110.344 144.797 111.469 144.43C111.875 144.289 112.34 144.219 112.863 144.219C113.387 144.219 113.793 144.258 114.082 144.336V146.551ZM118.23 145.73C118.91 145.207 119.672 144.824 120.516 144.582C121.367 144.34 122.109 144.219 122.742 144.219C123.375 144.219 123.863 144.234 124.207 144.266V139.062H126.539V156.5H124.441L124.348 155.105C123.871 155.738 123.148 156.207 122.18 156.512C121.805 156.629 121.422 156.688 121.031 156.688C120.648 156.688 120.27 156.648 119.895 156.57C119.52 156.492 119.145 156.363 118.77 156.184C118.402 155.996 118.051 155.754 117.715 155.457C117.379 155.152 117.078 154.781 116.812 154.344C116.25 153.383 115.969 152.246 115.969 150.934C115.969 149.621 116.176 148.559 116.59 147.746C117.012 146.926 117.559 146.254 118.23 145.73ZM119.648 147.125C119.25 147.5 118.941 147.984 118.723 148.578C118.512 149.164 118.406 149.879 118.406 150.723C118.406 151.559 118.508 152.25 118.711 152.797C118.914 153.336 119.168 153.758 119.473 154.062C120.012 154.609 120.66 154.883 121.418 154.883C122.395 154.883 123.203 154.523 123.844 153.805C124.008 153.625 124.125 153.465 124.195 153.324V146.117L123.961 146.094C123.602 146.047 123.172 146.023 122.672 146.023C122.18 146.023 121.652 146.113 121.09 146.293C120.527 146.465 120.047 146.742 119.648 147.125ZM136.043 156.688C131.621 156.688 129.41 154.527 129.41 150.207C129.41 148.348 130.023 146.859 131.25 145.742C132.352 144.727 133.609 144.219 135.023 144.219C136.562 144.219 137.766 144.734 138.633 145.766C139.438 146.727 139.84 148.012 139.84 149.621V150.535H131.848C131.848 152.746 132.75 154.098 134.555 154.59C134.984 154.707 135.645 154.766 136.535 154.766C137.434 154.766 138.312 154.645 139.172 154.402V156.383C138.312 156.586 137.27 156.688 136.043 156.688ZM137.496 148.812C137.496 148.062 137.289 147.43 136.875 146.914C136.391 146.32 135.723 146.023 134.871 146.023C133.973 146.023 133.242 146.309 132.68 146.879C132.164 147.41 131.906 148.055 131.906 148.812H137.496ZM147.867 146.234C146.703 146.234 145.668 146.629 144.762 147.418V156.5H142.418V144.406H144.586L144.75 145.719C146.023 144.719 147.34 144.219 148.699 144.219C150.137 144.219 151.191 144.648 151.863 145.508C152.566 146.414 152.918 147.875 152.918 149.891V156.5H150.574V149.891C150.574 147.953 150.051 146.797 149.004 146.422C148.668 146.297 148.289 146.234 147.867 146.234ZM162.082 156.688C157.66 156.688 155.449 154.527 155.449 150.207C155.449 148.348 156.062 146.859 157.289 145.742C158.391 144.727 159.648 144.219 161.062 144.219C162.602 144.219 163.805 144.734 164.672 145.766C165.477 146.727 165.879 148.012 165.879 149.621V150.535H157.887C157.887 152.746 158.789 154.098 160.594 154.59C161.023 154.707 161.684 154.766 162.574 154.766C163.473 154.766 164.352 154.645 165.211 154.402V156.383C164.352 156.586 163.309 156.688 162.082 156.688ZM163.535 148.812C163.535 148.062 163.328 147.43 162.914 146.914C162.43 146.32 161.762 146.023 160.91 146.023C160.012 146.023 159.281 146.309 158.719 146.879C158.203 147.41 157.945 148.055 157.945 148.812H163.535ZM176.145 146.551C175.715 146.426 175.199 146.363 174.598 146.363C174.004 146.363 173.516 146.426 173.133 146.551C172.75 146.668 172.414 146.812 172.125 146.984C171.594 147.297 171.207 147.648 170.965 148.039V156.5H168.621V144.406H170.871L170.965 146.082C171.551 145.348 172.406 144.797 173.531 144.43C173.938 144.289 174.402 144.219 174.926 144.219C175.449 144.219 175.855 144.258 176.145 144.336V146.551Z" fill="black"/>
</g>
<defs>
<filter id="filter0_d_14_12" x="37" y="17.5" width="108" height="108" filterUnits="userSpaceOnUse" color-interpolation-filters="sRGB">
<feFlood flood-opacity="0" result="BackgroundImageFix"/>
<feColorMatrix in="SourceAlpha" type="matrix" values="0 0 0 0 0 0 0 0 0 0 0 0 0 0 0 0 0 0 127 0" result="hardAlpha"/>
<feOffset dy="4"/>
<feGaussianBlur stdDeviation="2"/>
<feComposite in2="hardAlpha" operator="out"/>
<feColorMatrix type="matrix" values="0 0 0 0 0 0 0 0 0 0 0 0 0 0 0 0 0 0 0.25 0"/>
<feBlend mode="normal" in2="BackgroundImageFix" result="effect1_dropShadow_14_12"/>
<feBlend mode="normal" in="SourceGraphic" in2="effect1_dropShadow_14_12" result="shape"/>
</filter>
<filter id="filter1_d_14_12" x="0.5" y="139.062" width="179.645" height="30.3125" filterUnits="userSpaceOnUse" color-interpolation-filters="sRGB">
<feFlood flood-opacity="0" result="BackgroundImageFix"/>
<feColorMatrix in="SourceAlpha" type="matrix" values="0 0 0 0 0 0 0 0 0 0 0 0 0 0 0 0 0 0 127 0" result="hardAlpha"/>
<feOffset dy="4"/>
<feGaussianBlur stdDeviation="2"/>
<feComposite in2="hardAlpha" operator="out"/>
<feColorMatrix type="matrix" values="0 0 0 0 0 0 0 0 0 0 0 0 0 0 0 0 0 0 0.25 0"/>
<feBlend mode="normal" in2="BackgroundImageFix" result="effect1_dropShadow_14_12"/>
<feBlend mode="normal" in="SourceGraphic" in2="effect1_dropShadow_14_12" result="shape"/>
</filter>
<clipPath id="clip0_14_12">
<rect width="100" height="100" fill="white" transform="translate(41 17.5)"/>
</clipPath>
</defs>
</svg>
