<svg width="34" height="36" viewBox="0 0 34 36" fill="none" xmlns="http://www.w3.org/2000/svg">
<g clip-path="url(#clip0_19_265)" filter="url(#filter0_d_19_265)">
<g filter="url(#filter1_d_19_265)">
<path d="M13.2504 26.25H20.7504H13.2504ZM24.5004 10.75C24.5004 8.89349 23.7103 7.11301 22.3036 5.80025C20.8971 4.4875 18.9895 3.75 17.0004 3.75C15.0113 3.75 13.1036 4.4875 11.6971 5.80025C10.2906 7.11301 9.50038 8.89349 9.50038 10.75C9.50038 14.1077 8.65514 16.4794 7.6597 18.1082C6.69558 19.6858 6.21353 20.4746 6.23144 20.6795C6.25158 20.9096 6.297 20.9906 6.48291 21.1279C6.6484 21.25 7.43491 21.25 9.00795 21.25H24.9929C26.5659 21.25 27.3524 21.25 27.5179 21.1279C27.7037 20.9906 27.7492 20.9096 27.7694 20.6795C27.7872 20.4746 27.3051 19.6858 26.3411 18.1082C25.3456 16.4794 24.5004 14.1077 24.5004 10.75Z" fill="#EDE8E8"/>
<path d="M13.2504 26.25H20.7504M24.5004 10.75C24.5004 8.89349 23.7103 7.11301 22.3036 5.80025C20.8971 4.4875 18.9895 3.75 17.0004 3.75C15.0113 3.75 13.1036 4.4875 11.6971 5.80025C10.2906 7.11301 9.50038 8.89349 9.50038 10.75C9.50038 14.1078 8.65514 16.4794 7.6597 18.1082C6.69558 19.6857 6.21353 20.4746 6.23144 20.6795C6.25158 20.9096 6.297 20.9906 6.48291 21.1279C6.6484 21.25 7.43491 21.25 9.00795 21.25H24.9929C26.5659 21.25 27.3524 21.25 27.5179 21.1279C27.7037 20.9906 27.7492 20.9096 27.7694 20.6795C27.7872 20.4746 27.3051 19.6857 26.3411 18.1082C25.3456 16.4794 24.5004 14.1078 24.5004 10.75Z" stroke="#A8D1A1" stroke-width="3" stroke-linecap="round" stroke-linejoin="round"/>
</g>
</g>
<defs>
<filter id="filter0_d_19_265" x="-2" y="0" width="38" height="38" filterUnits="userSpaceOnUse" color-interpolation-filters="sRGB">
<feFlood flood-opacity="0" result="BackgroundImageFix"/>
<feColorMatrix in="SourceAlpha" type="matrix" values="0 0 0 0 0 0 0 0 0 0 0 0 0 0 0 0 0 0 127 0" result="hardAlpha"/>
<feOffset dy="4"/>
<feGaussianBlur stdDeviation="2"/>
<feComposite in2="hardAlpha" operator="out"/>
<feColorMatrix type="matrix" values="0 0 0 0 0 0 0 0 0 0 0 0 0 0 0 0 0 0 0.25 0"/>
<feBlend mode="normal" in2="BackgroundImageFix" result="effect1_dropShadow_19_265"/>
<feBlend mode="normal" in="SourceGraphic" in2="effect1_dropShadow_19_265" result="shape"/>
</filter>
<filter id="filter1_d_19_265" x="0.730957" y="2.25" width="32.5388" height="33.5" filterUnits="userSpaceOnUse" color-interpolation-filters="sRGB">
<feFlood flood-opacity="0" result="BackgroundImageFix"/>
<feColorMatrix in="SourceAlpha" type="matrix" values="0 0 0 0 0 0 0 0 0 0 0 0 0 0 0 0 0 0 127 0" result="hardAlpha"/>
<feOffset dy="4"/>
<feGaussianBlur stdDeviation="2"/>
<feComposite in2="hardAlpha" operator="out"/>
<feColorMatrix type="matrix" values="0 0 0 0 0 0 0 0 0 0 0 0 0 0 0 0 0 0 0.25 0"/>
<feBlend mode="normal" in2="BackgroundImageFix" result="effect1_dropShadow_19_265"/>
<feBlend mode="normal" in="SourceGraphic" in2="effect1_dropShadow_19_265" result="shape"/>
</filter>
<clipPath id="clip0_19_265">
<rect width="30" height="30" fill="white" transform="translate(2)"/>
</clipPath>
</defs>
</svg>
