<svg width="38" height="38" viewBox="0 0 38 38" fill="none" xmlns="http://www.w3.org/2000/svg">
<g filter="url(#filter0_d_186_2)">
<rect x="4" width="30" height="30" rx="10" fill="#D9D9D9"/>
</g>
<path d="M18.5959 15C18.5114 15.0001 18.4279 14.9801 18.3508 14.9413C18.2737 14.9024 18.2047 14.8456 18.1483 14.7745C18.0927 14.7021 18.0513 14.6174 18.0265 14.5257C18.0016 14.4341 17.9942 14.3376 18.0045 14.2425C18.0045 14.1613 18.9874 6 25.3726 6C25.5185 6.001 25.659 6.06201 25.7679 6.17158C25.8768 6.28115 25.9465 6.43177 25.964 6.59519C26.153 8.71876 25.5931 10.8409 24.4056 12.502C23.127 14.1703 21.1691 15 18.5959 15ZM24.7972 7.37976C20.9533 7.75852 19.6907 11.8888 19.3231 13.6202C20.0958 13.6165 20.8601 13.44 21.572 13.101C22.2838 12.762 22.9291 12.2673 23.4706 11.6453C24.347 10.4459 24.8171 8.93412 24.7972 7.37976Z" fill="url(#paint0_linear_186_2)"/>
<path d="M19.4121 16H19.3434C17.5037 15.7323 14 14.0639 14 9.70094C14.0006 9.53708 14.052 9.37902 14.1446 9.256C14.2372 9.13299 14.3648 9.05334 14.5038 9.03178C15.8965 8.86699 17.2889 9.34754 18.3816 10.3701C18.9428 11.0079 19.3772 11.782 19.6542 12.6377C19.9312 13.4933 20.044 14.4097 19.9846 15.3219C19.9847 15.4162 19.9677 15.5095 19.9349 15.5956C19.902 15.6817 19.8539 15.7587 19.7938 15.8216C19.6887 15.9321 19.5534 15.9954 19.4121 16ZM15.1984 10.3433C15.4961 13.1271 17.6793 14.1531 18.809 14.5011C18.7768 13.3174 18.3527 12.1946 17.6259 11.3694C16.9389 10.7172 16.0834 10.3556 15.1984 10.3433Z" fill="url(#paint1_linear_186_2)"/>
<path d="M18.9996 18.9999C18.7345 18.9999 18.4802 18.944 18.2928 18.8444C18.1053 18.7449 18 18.6098 18 18.469V15.531C18 15.3902 18.1053 15.2551 18.2928 15.1555C18.4802 15.0559 18.7345 15 18.9996 15C19.2647 15 19.519 15.0559 19.7064 15.1555C19.8939 15.2551 19.9992 15.3902 19.9992 15.531V18.4548C20.0046 18.526 19.9827 18.597 19.9347 18.6635C19.8868 18.73 19.8138 18.7906 19.7202 18.8417C19.6267 18.8927 19.5146 18.933 19.3906 18.9602C19.2667 18.9875 19.1337 19.0009 18.9996 18.9999Z" fill="url(#paint2_linear_186_2)"/>
<path d="M20.9388 24H17.0204C16.2163 23.9859 15.4493 23.6259 14.8845 22.9973C14.3196 22.3688 14.002 21.5219 14 20.6389V17.6722C14 17.4939 14.0645 17.3229 14.1793 17.1969C14.2941 17.0708 14.4499 17 14.6122 17H23.3878C23.5501 17 23.7059 17.0708 23.8207 17.1969C23.9355 17.3229 24 17.4939 24 17.6722V20.6389C23.9979 21.5296 23.6746 22.3831 23.101 23.0129C22.5273 23.6427 21.75 23.9977 20.9388 24ZM15.2245 18.3444V20.6389C15.2244 21.1661 15.4123 21.6723 15.7479 22.0493C16.0836 22.4262 16.5404 22.6438 17.0204 22.6556H20.9388C21.4259 22.6556 21.8931 22.4431 22.2376 22.0649C22.582 21.6867 22.7755 21.1737 22.7755 20.6389V18.3444H15.2245Z" fill="url(#paint3_linear_186_2)"/>
<defs>
<filter id="filter0_d_186_2" x="0" y="0" width="38" height="38" filterUnits="userSpaceOnUse" color-interpolation-filters="sRGB">
<feFlood flood-opacity="0" result="BackgroundImageFix"/>
<feColorMatrix in="SourceAlpha" type="matrix" values="0 0 0 0 0 0 0 0 0 0 0 0 0 0 0 0 0 0 127 0" result="hardAlpha"/>
<feOffset dy="4"/>
<feGaussianBlur stdDeviation="2"/>
<feComposite in2="hardAlpha" operator="out"/>
<feColorMatrix type="matrix" values="0 0 0 0 0 0 0 0 0 0 0 0 0 0 0 0 0 0 0.25 0"/>
<feBlend mode="normal" in2="BackgroundImageFix" result="effect1_dropShadow_186_2"/>
<feBlend mode="normal" in="SourceGraphic" in2="effect1_dropShadow_186_2" result="shape"/>
</filter>
<linearGradient id="paint0_linear_186_2" x1="22" y1="6" x2="22" y2="15" gradientUnits="userSpaceOnUse">
<stop stop-color="#A8D1A1"/>
<stop offset="1" stop-color="#88CF7B"/>
</linearGradient>
<linearGradient id="paint1_linear_186_2" x1="17" y1="9" x2="17" y2="16" gradientUnits="userSpaceOnUse">
<stop stop-color="#A8D1A1"/>
<stop offset="1" stop-color="#88CF7B"/>
</linearGradient>
<linearGradient id="paint2_linear_186_2" x1="19" y1="15" x2="19" y2="19" gradientUnits="userSpaceOnUse">
<stop stop-color="#A8D1A1"/>
<stop offset="1" stop-color="#88CF7B"/>
</linearGradient>
<linearGradient id="paint3_linear_186_2" x1="19" y1="17" x2="19" y2="24" gradientUnits="userSpaceOnUse">
<stop stop-color="#A8D1A1"/>
<stop offset="1" stop-color="#88CF7B"/>
</linearGradient>
</defs>
</svg>
