<svg width="29" height="30" viewBox="0 0 29 30" fill="none" xmlns="http://www.w3.org/2000/svg">
<g filter="url(#filter0_d_17_148)">
<path d="M16.2999 25.3162C15.4894 25.3162 14.6901 25.1826 13.9299 24.9354V30H18.6699V24.9353C17.9097 25.1825 17.1104 25.3162 16.2999 25.3162Z" fill="black"/>
<path d="M26.0649 11.6272C26.28 11.0569 26.404 10.4425 26.404 9.79799C26.404 7.32422 24.6665 5.25328 22.3255 4.6875C21.6798 2.00133 19.2307 0 16.2999 0C13.3691 0 10.9199 2.00133 10.2743 4.6875C7.93411 5.25328 6.19577 7.32422 6.19577 9.79799C6.19577 10.4425 6.31877 11.0559 6.53394 11.6272C4.99963 12.735 4 14.5167 4 16.5326C4 19.8963 6.77339 22.6228 10.197 22.6228C11.0643 22.6228 11.8897 22.447 12.6387 22.1302C13.3979 22.7638 14.3287 23.2014 15.3515 23.3717V20.4438L11.0569 16.2214C10.6861 15.8579 10.6861 15.2683 11.0569 14.9048C11.4267 14.5405 12.0267 14.5405 12.3965 14.9048L15.3516 17.808V14.6101L12.4059 11.7152C12.1311 11.4442 12.1311 11.0065 12.4059 10.7365C12.6807 10.4664 13.127 10.4664 13.4009 10.7365L15.3516 12.6527V9.14162C15.3516 8.62711 15.7765 8.21051 16.3 8.21051C16.8235 8.21051 17.2484 8.62705 17.2484 9.14162V12.6527L19.1991 10.7365C19.473 10.4664 19.9192 10.4664 20.1941 10.7365C20.469 11.0065 20.4689 11.4442 20.1941 11.7152L17.2484 14.6101V17.808L20.2035 14.9048C20.5733 14.5405 21.1733 14.5405 21.5431 14.9048C21.9139 15.2683 21.9139 15.8579 21.5431 16.2214L17.2485 20.4438V23.3717C18.2713 23.2014 19.2021 22.7638 19.9613 22.1312C20.7103 22.447 21.5348 22.6228 22.4021 22.6228C25.8257 22.6228 28.6 19.8964 28.6 16.5327C28.5998 14.5166 27.6001 12.735 26.0649 11.6272Z" fill="black"/>
</g>
<defs>
<filter id="filter0_d_17_148" x="0" y="0" width="32.6" height="38" filterUnits="userSpaceOnUse" color-interpolation-filters="sRGB">
<feFlood flood-opacity="0" result="BackgroundImageFix"/>
<feColorMatrix in="SourceAlpha" type="matrix" values="0 0 0 0 0 0 0 0 0 0 0 0 0 0 0 0 0 0 127 0" result="hardAlpha"/>
<feOffset dy="4"/>
<feGaussianBlur stdDeviation="2"/>
<feComposite in2="hardAlpha" operator="out"/>
<feColorMatrix type="matrix" values="0 0 0 0 0 0 0 0 0 0 0 0 0 0 0 0 0 0 0.25 0"/>
<feBlend mode="normal" in2="BackgroundImageFix" result="effect1_dropShadow_17_148"/>
<feBlend mode="normal" in="SourceGraphic" in2="effect1_dropShadow_17_148" result="shape"/>
</filter>
</defs>
</svg>
